<?xml version="1.0" encoding="UTF-8" standalone="no"?>
<svg
   version="1.1"
   viewBox="0 0 160.33209 61.32243"
   id="svg9"
   sodipodi:docname="calfNXT.svg"
   inkscape:version="1.4.4 (dcaf3e7d9e, 2026-05-05)"
   width="160.33209"
   height="61.32243"
   xmlns:inkscape="http://www.inkscape.org/namespaces/inkscape"
   xmlns:sodipodi="http://sodipodi.sourceforge.net/DTD/sodipodi-0.dtd"
   xmlns:xlink="http://www.w3.org/1999/xlink"
   xmlns="http://www.w3.org/2000/svg"
   xmlns:svg="http://www.w3.org/2000/svg"
   xmlns:rdf="http://www.w3.org/1999/02/22-rdf-syntax-ns#"
   xmlns:cc="http://creativecommons.org/ns#"
   xmlns:dc="http://purl.org/dc/elements/1.1/">
  <sodipodi:namedview
     id="namedview9"
     pagecolor="#000000"
     bordercolor="#eeeeee"
     borderopacity="1"
     inkscape:showpageshadow="0"
     inkscape:pageopacity="0"
     inkscape:pagecheckerboard="0"
     inkscape:deskcolor="#000000"
     showguides="true"
     showgrid="false"
     inkscape:zoom="5"
     inkscape:cx="178.2"
     inkscape:cy="44.5"
     inkscape:window-width="2844"
     inkscape:window-height="1573"
     inkscape:window-x="0"
     inkscape:window-y="0"
     inkscape:window-maximized="1"
     inkscape:current-layer="svg9">
    <inkscape:grid
       id="grid19"
       units="px"
       originx="-12.000384"
       originy="-69.677697"
       spacingx="1"
       spacingy="1"
       empcolor="#0099e5"
       empopacity="0.30196078"
       color="#0099e5"
       opacity="0.14901961"
       empspacing="10"
       enabled="true"
       visible="false" />
  </sodipodi:namedview>
  <defs
     id="defs4">
    <linearGradient
       id="linearGradient15"
       inkscape:collect="always">
      <stop
         style="stop-color:#0066ff;stop-opacity:1;"
         offset="0"
         id="stop15" />
      <stop
         style="stop-color:#ff0081;stop-opacity:1;"
         offset="1"
         id="stop16" />
    </linearGradient>
    <linearGradient
       id="f"
       x1="45.448002"
       gradientUnits="userSpaceOnUse"
       y1="92.540001"
       gradientTransform="scale(1.0059,0.99417)"
       x2="45.448002"
       y2="7.0165">
      <stop
         offset="0"
         id="stop1" />
      <stop
         stop-opacity=".58824"
         offset="1"
         id="stop2" />
    </linearGradient>
    <filter
       id="h"
       style="color-interpolation-filters:sRGB"
       x="-0.047720931"
       y="-0.048282354"
       width="1.0954419"
       height="1.0965647">
      <feGaussianBlur
         stdDeviation="1.71"
         id="feGaussianBlur2" />
    </filter>
    <filter
       id="i"
       style="color-interpolation-filters:sRGB"
       height="1.3915758"
       width="1.3915758"
       y="-0.19578789"
       x="-0.19578789">
      <feGaussianBlur
         stdDeviation="5.28"
         id="feGaussianBlur3" />
    </filter>
    <linearGradient
       id="j"
       y2="138.66"
       gradientUnits="userSpaceOnUse"
       y1="20.221001"
       x2="48"
       x1="48">
      <stop
         stop-color="#fff"
         offset="0"
         id="stop3" />
      <stop
         stop-color="#fff"
         stop-opacity="0"
         offset="1"
         id="stop4" />
    </linearGradient>
    <clipPath
       id="g">
      <rect
         rx="6"
         ry="6"
         height="84"
         width="84"
         y="6"
         x="6"
         fill="#ffffff"
         id="rect4" />
    </clipPath>
    <linearGradient
       inkscape:collect="always"
       xlink:href="#linearGradient15"
       id="linearGradient3"
       gradientUnits="userSpaceOnUse"
       x1="29.610132"
       y1="-220.64651"
       x2="95.065407"
       y2="-237.90714"
       gradientTransform="translate(54.695086,240.85961)" />
  </defs>
  <metadata
     id="metadata4">
    <rdf:RDF>
      <cc:Work
         rdf:about="">
        <dc:format>image/svg+xml</dc:format>
        <dc:type
           rdf:resource="http://purl.org/dc/dcmitype/StillImage" />
      </cc:Work>
    </rdf:RDF>
  </metadata>
  <g
     display="none"
     transform="translate(-1976.4004,-1220.0777)"
     id="g5">
    <rect
       opacity="0.9"
       rx="6"
       ry="6"
       height="85"
       filter="url(#h)"
       width="86"
       y="7"
       x="5"
       fill="url(#f)"
       id="rect5"
       style="fill:url(#f)" />
  </g>
  <g
     display="none"
     transform="translate(-1976.4004,-1220.0777)"
     id="g6">
    <rect
       opacity="0.5"
       clip-path="url(#g)"
       rx="12"
       ry="12"
       height="66"
       filter="url(#i)"
       width="66"
       stroke="#ffffff"
       stroke-linecap="round"
       y="15"
       x="15"
       stroke-width="0.5"
       fill="url(#j)"
       id="rect6"
       style="fill:url(#j)" />
  </g>
  <path
     style="color:#000000;font-variant-ligatures:normal;font-variant-position:normal;font-variant-caps:normal;font-variant-numeric:normal;font-variant-alternates:normal;font-feature-settings:normal;text-indent:0;text-decoration-line:none;text-decoration-style:solid;text-decoration-color:#000000;text-transform:none;text-orientation:mixed;dominant-baseline:auto;white-space:normal;shape-padding:0;isolation:auto;mix-blend-mode:normal;solid-color:#000000;fill:#ffffff;color-rendering:auto;image-rendering:auto;shape-rendering:auto"
     d="m 59.207615,0.32330362 c -1.7405,0 -2.3799,0.91944998 -2.797,1.42779998 -0.41703,0.50831 -0.68095,0.98264 -0.96097,1.5332 -0.56004,1.1012 -1.1139,2.4982 -1.7579,4.3243 -1.2699,3.6011004 -2.8522,8.8939004 -4.7599,15.8250004 l -0.07031,-0.029 c -0.39104,-0.161 -0.81171,-0.2376 -1.2344,-0.2246 -10.966,0.3216 -19.419,5.6047 -24.145,14.924 l -8.2522,0.627 c -0.87269,-0.046 -1.1053,-0.153 -1.7598,-0.2343 l 1.1348,-0.5529 c 2.5842,-0.4424 4.7651,-0.9078 6.4201,-1.5254 0.90076,-0.3361 1.692,-0.7018 2.4434,-1.2598 0.75147,-0.558 1.5806,-1.4164 1.8497,-2.7344 0.05952,-0.2916 0.07531,-0.5904 0.04687,-0.8867 -0.13954,-1.4544 -0.70591,-3.0026 -1.9102,-4.088 -1.2043,-1.0853 -2.7927,-1.4883 -4.2541,-1.4883 h -1.0957 c -0.24626,-2e-4 -0.4916,0.03 -0.73049,0.09 -4.8053,1.2074 -8.5437996,2.4566 -11.3619996,3.8947 -2.8159,1.437 -5.11029997,3.0973 -5.67789997,6.0039 -0.77199,3.8579 -0.26864,7.5834 2.14459997,10.115 2.4161,2.5351 6.0255,3.42 10.2889996,3.42 3.8082,0 7.134,-0.5468 10.2,-1.4121 0.23787,0.21 0.45813,0.4635 0.71096,0.6114 0.93433,0.5464 1.8859,0.7724 2.879,0.8965 0.19241,0.024 0.38668,0.029 0.5801,0.015 3.1475,-0.2202 6.5246,-2.2409 10.424,-5.0333 0.84329,1.6848 1.7133,3.1011 2.8165,4.213 1.1461,1.1551 2.7144,2.0821 4.5119,2.0821 0.8229,0 1.7107,-0.083 2.7579,-0.2246 1.3797,-0.1867 2.4497,-1.2979 2.5841,-2.6837 l 0.09766,-1 c 1.2755,1.4324 2.988,2.5353 4.8771,2.5353 h 1.3711 c 0.71463,2e-4 1.4059,-0.2547 1.9493,-0.7188 l 0.5508,-0.4707 c 0.76405,-0.653 1.1505,-1.645 1.0293,-2.6427 -0.33477,-2.752 -0.42431,-5.1683 -0.52346,-7.5978 1.1662,-0.65 1.4203,-0.6995 2.3419,-1.1777 l -1.963,16.276 c -0.72967,0.4282 -1.2446,1.1446 -1.418,1.9726 -0.34414,1.651 0.6322,3.7284 1.8712,4.6271 1.239,0.8987 2.5537,1.2483 4.1095,1.5254 0.33789,0.059 0.6834,0.06 1.0215,0 0.9125,0.1577 1.8467,-0.1147 2.5313,-0.7383 1.4445,-1.3182 2.5999,-2.6681 2.9962,-4.5919 l 0.0684,-0.3066 c 0.005,-0.021 0.009,-0.042 0.0137,-0.062 0.30095,-1.5041 0.39596,-2.817 0.35352,-4.086 0.18892,-0.3954 0.28892,-0.8274 0.29298,-1.2656 0.0249,-3.6991 0.41118,-7.4275 1.1602,-11.196 l 1.2754,-6.3888 0.11134,-0.5527 11.832,-2.8809 c 0.78679,-0.191 1.463,-0.6918 1.8751,-1.3888 0.41093,-0.1139 0.82458,-0.1984 1.2286,-0.4004 1.2608,-0.6306 2.4207,-2.029 2.7032,-3.5 l 0.0586,-0.2676 c 0.41573,-1.873 -1.0092,-3.6496 -2.9278,-3.6504 h -1.7501 c -1.8749,0 -4.989,0.4615 -8.7913,1.1191 2.0666,-4.0543 4.3137,-7.5366 6.8713,-9.9221 1.603,-0.48955 3.0728,-0.96067 4.1525,-1.4727004 0.64776,-0.30719 1.2186,-0.6184 1.7872,-1.0762 0.56859,-0.45779 1.2877,-1.1079 1.5391,-2.4063 0.0701,-0.36228 0.0729,-0.73439 0.008,-1.0977 -0.24344,-1.3626 -1.0849,-2.7987 -2.3106,-3.6153 -1.2258,-0.81661998 -2.5919,-1.05269998 -3.9376,-1.05269998 -0.39329,0 -0.43597,0.0196 -0.43948,0.0273 -0.18125,-0.0123 -0.3501,-0.0273 -0.56837,-0.0273 -4.3705,0 -8.2818,2.67929998 -11.657,6.93759998 -3.1558,3.9820004 -6.0644,9.6697004 -8.93,16.8300004 -1.7456,0.492 -3.4677,0.9929 -4.9631,1.5997 0.04346,-0.2458 0.04823,-0.5561 0.0957,-0.795 0.80874,-3.9689 2.7877,-9.4433 5.9709,-16.2170004 0.19941,-0.42475 0.29641,-0.89035 0.28321,-1.3594 -0.04369,-1.5732 -0.15978,-2.8381 -0.59963,-4.088 -0.21993,-0.62495 -0.52537,-1.2852 -1.1602,-1.92 -0.63482,-0.63473998 -1.7284,-1.14259998 -2.7286,-1.14259998 z"
     id="path14" />
  <path
     d="m 59.223615,3.3223036 c -1.0982,0 -3.5805,7.0424004 -7.4503,21.1290004 -0.889,4.5474 -1.1765,9.0822 -0.86275,13.604 -0.13074,5.6189 1.3068,8.4277 4.3137,8.4277 h 1.3718 l 0.55027,-0.4707 c -0.46599,-3.8309 -0.70109,-7.3641 -0.73108,-10.635 0.17136,0.077 0.35683,0.1289 0.57386,0.1289 0.12183,-0.068 0.20885,-0.1133 0.3282,-0.1797 0.19534,0.1115 0.41623,0.1797 0.67802,0.1797 3.6386,-2.0359 6.1667,-3.2988 7.5918,-3.7949 l -2.716,22.533 c -0.18303,0.9931 -0.63963,1.4902 -1.3718,1.4902 -0.26147,1.2544 0.92806,2.1174 3.5689,2.5879 0.06585,-0.06 0.11408,-0.1163 0.17687,-0.1758 0.26031,0.063 0.53231,0.1229 0.82934,0.1758 1.2028,-1.0977 1.8962,-2.0919 2.0792,-2.9805 l 0.0786,-0.3515 c 0.41834,-2.0908 0.48216,-3.6856 0.19456,-4.7833 h 0.39305 c 0.0262,-3.894 0.43207,-7.8134 1.2165,-11.76 l 1.02,-5.1367 -0.27514,-0.3907 0.4304,-0.3535 0.58957,-2.9394 13.688,-3.3321 0.0786,-0.3535 -0.27513,-0.3926 0.0786,-0.3515 c 2.2225,0 3.4515,-0.6154 3.6868,-1.8438 l 0.0786,-0.3515 h -0.74484 c -0.0758,0 -0.18082,0.01 -0.26334,0.01 l 0.002,-0.01 h -0.74484 c -2.0785,0 -6.7548,0.7027 -13.92,2.0781 l 0.10021,-0.6289 c 2.7454,-6.8995 6.1581,-12.179 10.237,-15.8380004 3.9744,-1.1499 6.0396,-2.1293 6.1965,-2.9395 -0.26146,-1.4635 -1.3608,-2.1953 -3.2957,-2.1953 -0.13314,0 -0.26593,0.0243 -0.39894,0.0312 -0.19315,-0.0178 -0.39374,-0.0312 -0.60727,-0.0312 -6.2753,0 -12.405,7.7354004 -18.393,23.2070004 -4.5494,1.1541 -8.1485,2.626 -10.801,4.4121 0.13259,-2.3875 0.3942,-4.61 0.79986,-6.6465 0.889,-4.3645 2.9542,-9.995 6.1965,-16.8950004 -0.07838,-2.8225 -0.57642,-4.2344 -1.4916,-4.2344 z m -11.491,22.8540004 c -10.747,0.3152 -18.191,5.2511 -22.343,14.791 l -10.17,0.7735 c -4.8895,-0.2353 -7.2046996,-1.0207 -6.9432996,-2.3536 l 0.39305,-1.8808 4.9032996,-2.3906 c 5.6216,-0.9148 8.5626,-2.0124 8.824,-3.293 -0.18303,-1.9078 -1.2429,-2.8633 -3.1778,-2.8633 h -1.0966 c -9.3606996,2.3521 -14.3029996,4.8746 -14.8259996,7.5664 -1.3335,6.6382 1.8291,9.957 9.4901996,9.957 4.5612,0 8.4297,-0.6351 11.632,-1.8789 l -0.02161,0.5078 c 0.23533,0.8102 1.0847,1.3073 2.5489,1.4903 2.6147,-0.183 6.9162,-2.6279 12.904,-7.332 l 0.31248,-0.039 -0.0393,0.9804 0.0393,2.8613 c 1.5688,3.1885 3.1511,4.7832 4.7461,4.7832 0.60138,0 1.3869,-0.067 2.3544,-0.1972 l 0.19456,-1.9981 c -1.8564,-1.9339 -2.5479,-4.1958 -2.0773,-6.7832 l 0.90205,-2.7031 c 2.1441,-3.7633 3.3862,-6.7829 3.7261,-9.0566 z m -3.8047,3.7246 h 0.31444 c -1.2289,2.1169 -5.2692,5.4894 -12.12,10.115 l -2.1166,1.3711 c 2.0395,-5.3314 6.6792,-9.1603 13.922,-11.486 z"
     id="path7" />
  <path
     id="path3"
     style="font-size:25.2025px;line-height:0.5;font-family:'Planet NS Expanded Italic';-inkscape-font-specification:'Planet NS Expanded Italic, Normal';letter-spacing:0px;baseline-shift:baseline;display:inline;overflow:visible;vector-effect:none;fill:#ffffff;stroke-linecap:round;stroke-linejoin:round;paint-order:stroke fill markers;enable-background:accumulate;stop-color:#000000"
     d="m 97.657405,0.00242362 c -0.0339,1.6e-4 -0.0677,8.11e-4 -0.10156,0.002 -1.92178,0.05638 -4.19502,1.32462498 -4.95118,3.02148398 l -6.0039,13.4003914 c -0.004,0.0078 -0.008,0.01561 -0.0117,0.02344 -0.44457,1.020774 -0.67829,2.798502 0.5625,4.115235 1.23486,1.310437 2.72659,1.409218 3.89844,1.410156 2.34431,0.01741 5.03343,-1.374959 5.92578,-3.414063 l 0.004,-0.0078 c 0.009,-0.02125 0.0185,-0.04306 0.0273,-0.06445 l 1.75195,-3.902344 4.984385,5.728516 c 0.0503,0.05781 0.10309,0.113841 0.1582,0.167969 1.0664,1.047448 2.67942,1.492187 4.02148,1.492187 h 1.2168 c 0.71632,0 1.43799,-0.321594 2.16211,-0.568359 0.61231,0.313886 1.14061,0.462582 1.59375,0.53125 0.17368,0.02555 0.34942,0.03796 0.52539,0.03711 h 1.43555 c 1.88884,0 3.75333,-0.588541 5.28906,-1.585937 0.0111,-0.0071 0.0222,-0.01426 0.0332,-0.02148 l 3.93555,-2.625 0.93555,1.623047 c 0.017,0.03023 0.0346,0.06018 0.0527,0.08984 0.98224,1.56754 3.18739,2.519531 5.04102,2.519531 h 1.66992 c 0.96984,0 1.98365,0.04601 3.2793,-0.837891 0.13393,-0.09137 0.16943,-0.307595 0.29687,-0.427734 1.22461,1.141813 2.60559,1.265625 3.71875,1.265625 1.17797,0 2.40229,-0.186505 3.5293,-0.783203 1.08252,-0.573141 1.94695,-1.553516 2.3789,-2.576172 l 0.01,-0.02148 c 0.004,-0.01041 0.009,-0.02084 0.0137,-0.03125 l 4.3125,-9.6523444 h 4.96094 c 2.28154,0.04291 4.73977,-1.518453 5.58398,-3.382813 0.006,-0.01428 0.0119,-0.0286 0.0176,-0.04297 0.41448,-0.958472 0.80303,-2.470677 -0.32226,-3.904297 -1.12529,-1.43362098 -2.82031,-1.60515698 -3.95899,-1.57812498 h -16.42187 c -0.0221,-2.1e-4 -0.0443,-2.1e-4 -0.0664,0 h -0.002 -0.002 c -0.008,0.0015 -0.017,0.0076 -0.0254,0.0078 -0.0265,-3.68e-4 -0.0553,-0.0075 -0.082,-0.0078 -0.0117,-5.9e-5 -0.0234,-5.9e-5 -0.0351,0 h -1.98047 c -1.80497,0 -3.67284,0.562127 -5.05664,1.64453098 l -3.66211,2.460938 -0.84961,-1.488282 c -0.002,-0.0039 -0.004,-0.0078 -0.006,-0.01172 -1.00681,-1.74219998 -3.40702,-2.61831798 -5.33594,-2.58203198 l 0.0488,-0.002 H 120.722 c -0.14571,4.3e-5 -0.29124,0.0092 -0.43555,0.02734 -0.53236,0.06669 -1.11911,0.184314 -1.71289,0.425781 -0.77819,-0.297624 -1.55446,-0.436787 -2.24023,-0.451172 -0.0124,-6.6e-5 -0.0247,-6.6e-5 -0.0371,0 -1.18473,-0.01208 -2.44068,0.190609 -3.56445,0.808594 -1.11208,0.61154798 -1.95672,1.62493298 -2.38086,2.66015598 l -2.0957,4.691406 -5.3711,-6.410156 c -0.0513,-0.06185 -0.1054,-0.121798 -0.16211,-0.179687 C 101.7596,0.62176362 100.16328,0.00243962 98.745445,0.00243962 Z M 137.32147,8.9184386 c 0.16469,10e-4 0.35093,0.04208 0.50781,0.03906 h 0.17383 l -2.72851,6.0839844 -1.8418,-3.574219 z"
     sodipodi:nodetypes="cccccscccccccsscccscccccssscsscccccccsccscccccscccccccccccsccccsccccccc" />
  <path
     d="m 111.90502,4.7104765 c 0.41799,-1.0900593 -0.0779,-1.6514809 -1.48756,-1.6842646 -1.45068,-0.016392 -2.38502,0.5532255 -2.80301,1.7088524 l -3.29476,8.1754447 c -0.30325,0.770418 -0.84419,0.946631 -1.6228,0.528638 L 95.32055,3.6777887 C 94.918949,3.2270123 94.406703,3.0016241 93.783812,3.0016241 h -1.032687 c -1.0081,0.032784 -1.680167,0.4671685 -2.0162,1.3031536 L 85.030554,18.418177 c -0.450776,1.147431 0.03688,1.721147 1.462975,1.721147 1.45068,0.01639 2.393212,-0.557322 2.827597,-1.721147 l 3.098063,-7.659101 c 0.270466,-0.721242 0.790908,-0.729439 1.561326,-0.02459 l 6.909175,8.802433 c 0.36881,0.401601 0.90565,0.602402 1.6105,0.602402 h 1.15563 c 1.32774,0 2.2047,-0.512246 2.63089,-1.536738 z m 17.39429,2.053878 c -2.39146,1.427312 -5.1419,2.8954762 -5.424,3.6750785 -0.6065,0.450776 -0.79091,0.92614 -0.55323,1.426093 l 3.33165,7.167344 c 0.27866,0.737635 -0.209,1.106452 -1.46297,1.106452 h -1.58592 c -1.02449,0 -1.74983,-0.377013 -2.17602,-1.131039 l -2.18831,-4.216809 c -0.18851,-0.401599 -0.58191,-0.393403 -1.18022,0.02459 l -5.70437,4.216808 c -1.02449,0.737635 -2.11455,1.106452 -3.27018,1.106452 h -1.36462 c -1.02449,-0.172115 -1.02449,-0.667969 0,-1.487562 l 8.16315,-6.220715 c 0.82779,-0.590107 1.08187,-1.188411 0.76222,-1.79491 l -3.2087,-6.122363 c -0.36882,-0.8277894 0.0369,-1.3236434 1.21709,-1.4875621 h 1.36462 c 1.17202,-0.032784 1.95883,0.3360333 2.36043,1.1064512 l 2.0162,3.9094609 c 0.33603,0.4016008 0.83189,0.4016008 1.48757,0 l 5.34784,-3.9832263 c 0.77042,-0.7048504 1.73754,-1.0572756 2.90136,-1.0572756 l 2.08415,2e-6 h 15.67473 c 1.24578,-0.032784 1.64328,0.5286375 1.19251,1.6842646 -0.47537,1.1638227 -1.29906,1.7293422 -2.47108,1.6965585 h -5.32326 c -0.91794,0.049175 -1.58181,0.4835599 -1.99161,1.3031536 L 134.9463,18.479647 c -0.38521,1.106451 -1.32774,1.659677 -2.8276,1.659677 -1.44248,0 -1.93014,-0.561422 -1.46297,-1.684265 l 4.36433,-10.794046 c 0.35243,-0.8195935 0.0656,-1.2293902 -0.86057,-1.2293902 h -3.31935 c -0.64215,-0.00309 -1.13576,0.1255528 -1.54083,0.3327317 z"
     id="text2"
     style="font-size:25.2025px;line-height:0.5;font-family:'Planet NS Expanded Italic';-inkscape-font-specification:'Planet NS Expanded Italic, Normal';letter-spacing:0px;fill:url(#linearGradient3);stroke-width:6;stroke-linecap:round;stroke-linejoin:round;paint-order:stroke fill markers"
     transform="scale(1.0529065,0.94975195)"
     aria-label="NXT"
     sodipodi:nodetypes="ccccccsccccccccssccccccssccccscccccccccccccccccccsccscc" />
</svg>
